<svg width="17" height="22" viewBox="0 0 17 22" fill="none" xmlns="http://www.w3.org/2000/svg">
<path d="M0.760254 21.0815C0.760254 16.6632 4.34197 13.0815 8.76025 13.0815C13.1786 13.0815 16.7603 16.6632 16.7603 21.0815H14.7603C14.7603 17.7678 12.074 15.0815 8.76025 15.0815C5.44654 15.0815 2.76025 17.7678 2.76025 21.0815H0.760254ZM8.76025 12.0815C5.44525 12.0815 2.76025 9.39654 2.76025 6.08154C2.76025 2.76654 5.44525 0.081543 8.76025 0.081543C12.0753 0.081543 14.7603 2.76654 14.7603 6.08154C14.7603 9.39654 12.0753 12.0815 8.76025 12.0815ZM8.76025 10.0815C10.9703 10.0815 12.7603 8.29154 12.7603 6.08154C12.7603 3.87154 10.9703 2.08154 8.76025 2.08154C6.55025 2.08154 4.76025 3.87154 4.76025 6.08154C4.76025 8.29154 6.55025 10.0815 8.76025 10.0815Z" fill="#12975D"/>
</svg>
