<svg width="26" height="26" viewBox="0 0 26 26" fill="none" xmlns="http://www.w3.org/2000/svg">
<path d="M20.1193 18.771L25.4727 24.1244L23.7049 25.8921L18.3516 20.5388C16.4267 22.0788 13.9856 23 11.3306 23C5.12057 23 0.0805664 17.96 0.0805664 11.75C0.0805664 5.54 5.12057 0.5 11.3306 0.5C17.5406 0.5 22.5806 5.54 22.5806 11.75C22.5806 14.405 21.6593 16.8461 20.1193 18.771ZM17.6114 17.8435C19.1399 16.2683 20.0806 14.1195 20.0806 11.75C20.0806 6.91563 16.1649 3 11.3306 3C6.49619 3 2.58057 6.91563 2.58057 11.75C2.58057 16.5844 6.49619 20.5 11.3306 20.5C13.7001 20.5 15.8488 19.5594 17.4241 18.0309L17.6114 17.8435Z" fill="#626162"/>
</svg>
