<svg width="25" height="24" viewBox="0 0 25 24" fill="none" xmlns="http://www.w3.org/2000/svg">
<path d="M10.2472 6.16671C10.2472 10.677 13.9035 14.3334 18.4138 14.3334C20.6986 14.3334 22.7643 13.395 24.2466 11.8828C24.2472 11.9219 24.2472 11.961 24.2472 12C24.2472 18.4433 19.0238 23.6667 12.5805 23.6667C6.13716 23.6667 0.913818 18.4433 0.913818 12C0.913818 5.55672 6.13716 0.333374 12.5805 0.333374C12.6196 0.333374 12.6587 0.333374 12.6977 0.333946C11.1855 1.81618 10.2472 3.88187 10.2472 6.16671ZM3.24715 12C3.24715 17.1547 7.42583 21.3334 12.5805 21.3334C16.1485 21.3334 19.2489 19.3313 20.8195 16.3892C20.0407 16.5719 19.2346 16.6667 18.4138 16.6667C12.6148 16.6667 7.91382 11.9657 7.91382 6.16671C7.91382 5.34593 8.0087 4.53976 8.19137 3.76104C5.24928 5.33164 3.24715 8.43202 3.24715 12Z" fill="#626162"/>
</svg>
