<svg width="27" height="26" viewBox="0 0 27 26" fill="none" xmlns="http://www.w3.org/2000/svg">
<path d="M13.5809 20.0001C9.7149 20.0001 6.58089 16.8661 6.58089 13.0001C6.58089 9.13408 9.7149 6.00008 13.5809 6.00008C17.4469 6.00008 20.5809 9.13408 20.5809 13.0001C20.5809 16.8661 17.4469 20.0001 13.5809 20.0001ZM13.5809 17.6667C16.1582 17.6667 18.2476 15.5774 18.2476 13.0001C18.2476 10.4227 16.1582 8.33341 13.5809 8.33341C11.0036 8.33341 8.91422 10.4227 8.91422 13.0001C8.91422 15.5774 11.0036 17.6667 13.5809 17.6667ZM12.4142 0.166748H14.7476V3.66675H12.4142V0.166748ZM12.4142 22.3334H14.7476V25.8334H12.4142V22.3334ZM3.6814 4.7505L5.33131 3.10059L7.80618 5.57546L6.15627 7.22537L3.6814 4.7505ZM19.3555 20.4247L21.0056 18.7747L23.4804 21.2497L21.8305 22.8996L19.3555 20.4247ZM21.8305 3.10059L23.4804 4.7505L21.0056 7.22537L19.3555 5.57546L21.8305 3.10059ZM6.15627 18.7747L7.80618 20.4247L5.33131 22.8996L3.6814 21.2497L6.15627 18.7747ZM26.4142 11.8334V14.1667H22.9142V11.8334H26.4142ZM4.24756 11.8334V14.1667H0.747559V11.8334H4.24756Z" fill="#4A4A4A"/>
</svg>
