<svg width="17" height="17" viewBox="0 0 17 17" fill="none" xmlns="http://www.w3.org/2000/svg">
<g clip-path="url(#clip0_209_381)">
<path d="M15.1212 1.84473C14.8839 1.84611 14.6569 1.94136 14.4897 2.10968C14.4897 2.10968 10.7339 5.85812 8.45316 8.13738L6.84577 6.52999C6.49554 6.18065 5.92865 6.18065 5.57841 6.52999C5.22907 6.88023 5.22907 7.44712 5.57841 7.79736L7.82169 10.0406C8.17194 10.3899 8.7388 10.3899 9.08905 10.0406C11.2111 7.91931 15.7571 3.37704 15.7571 3.37704C16.1064 3.02681 16.1064 2.45992 15.7571 2.10968C15.5888 1.94029 15.3599 1.84493 15.1212 1.84473Z" fill="#12975D"/>
<path d="M7.99998 1.12891C4.04604 1.12894 0.820312 4.35113 0.820312 8.30509C0.820312 12.259 4.04604 15.4847 7.99998 15.4847C11.2447 15.4847 14.0933 13.2981 14.9331 10.1639C15.0955 9.55803 15.1761 8.93238 15.1761 8.30509C15.1761 7.80995 14.7751 7.40842 14.28 7.40776C13.7849 7.40842 13.3838 7.80995 13.3838 8.30509C13.3838 8.77559 13.3199 9.24564 13.1981 9.7001C12.5663 12.058 10.4411 13.6924 7.99998 13.6924C5.01593 13.6924 2.6126 11.2891 2.6126 8.30509C2.6126 5.32104 5.01592 2.92121 7.99998 2.92121C8.47053 2.92124 8.93699 2.98534 9.3915 3.10695C9.87016 3.23529 10.3622 2.95133 10.4906 2.47265C10.4907 2.47224 10.4908 2.47179 10.4909 2.47137C10.6193 1.9927 10.3353 1.50063 9.85662 1.3723C9.85619 1.37219 9.85577 1.37206 9.85534 1.37195C9.24933 1.2096 8.62738 1.12894 7.99998 1.12891Z" fill="#12975D"/>
</g>
<defs>
<clipPath id="clip0_209_381">
<rect width="16" height="16" fill="white" transform="translate(0.419922 0.306641)"/>
</clipPath>
</defs>
</svg>
