<svg width="19" height="17" viewBox="0 0 19 17" fill="none" xmlns="http://www.w3.org/2000/svg">
<path d="M2.41376 5.72057L3.48581 14.833H15.5217L16.5937 5.72057L13.2522 7.94829L9.50376 2.70046L5.7553 7.94829L2.41376 5.72057ZM1.83766 3.33342L5.33706 5.66636L8.8256 0.782381C9.0931 0.407873 9.6136 0.321131 9.9881 0.588631C10.0629 0.642081 10.1283 0.707548 10.1818 0.782381L13.6704 5.66636L17.1698 3.33342C17.5528 3.07813 18.0701 3.18161 18.3254 3.56455C18.4352 3.72923 18.4828 3.92761 18.4597 4.12416L17.0903 15.7637C17.0409 16.1834 16.6853 16.4997 16.2627 16.4997H2.74476C2.3222 16.4997 1.96651 16.1834 1.91714 15.7637L0.54778 4.12416C0.494005 3.66708 0.820955 3.25295 1.27804 3.19917C1.47461 3.17605 1.67298 3.22364 1.83766 3.33342ZM9.50376 11.4997C8.58326 11.4997 7.8371 10.7535 7.8371 9.83304C7.8371 8.91254 8.58326 8.16637 9.50376 8.16637C10.4242 8.16637 11.1704 8.91254 11.1704 9.83304C11.1704 10.7535 10.4242 11.4997 9.50376 11.4997Z" fill="#004024"/>
</svg>
