<svg width="180" height="40" viewBox="0 0 180 40" fill="none" xmlns="http://www.w3.org/2000/svg">
<rect width="40" height="40" transform="translate(0.419434)" fill="#0A804D"/>
<path d="M9.89746 30.7336V30.4083L10.548 30.1481C10.9817 29.9963 11.2635 29.7903 11.3937 29.5301C11.5454 29.2699 11.6213 28.9338 11.6213 28.5218V11.5108C11.6213 11.0771 11.5454 10.7301 11.3937 10.4699C11.2635 10.2097 10.9817 10.0037 10.548 9.85195L9.89746 9.59174V9.26648H18.159V9.59174L17.6061 9.81942C17.1941 9.97121 16.9122 10.1772 16.7604 10.4374C16.6086 10.6759 16.5327 11.012 16.5327 11.4457V19.3495H24.3064V11.4457C24.3064 11.012 24.2305 10.6759 24.0787 10.4374C23.9486 10.1772 23.6668 9.97121 23.2331 9.81942L22.6476 9.59174V9.26648H30.9417V9.59174L30.2912 9.85195C29.8792 10.0037 29.5973 10.2097 29.4455 10.4699C29.2937 10.7301 29.2178 11.0771 29.2178 11.5108V28.5218C29.2178 28.9338 29.2937 29.2699 29.4455 29.5301C29.5973 29.7903 29.8792 29.9963 30.2912 30.1481L30.9417 30.4083V30.7336H22.6476V30.4083L23.2331 30.2131C23.6668 30.0397 23.9486 29.8337 24.0787 29.5952C24.2305 29.3349 24.3064 28.988 24.3064 28.5543V20H16.5327V28.5543C16.5327 29.3566 16.8905 29.9096 17.6061 30.2131L18.159 30.4083V30.7336H9.89746Z" fill="white"/>
<path d="M172.364 29.4595L166.969 16.9153H169.588L173.595 26.7359H172.757L176.973 16.9153H179.592L173.778 29.4595H172.364ZM168.802 34.5662L172.469 27.0501L173.778 29.4595L171.421 34.5662H168.802Z" fill="white"/>
<path d="M162.473 29.3548V10.6564H164.83V29.3548H162.473Z" fill="white"/>
<path d="M156.643 29.3547V16.9153H159V29.3547H156.643ZM157.821 14.4274C157.385 14.4274 157.027 14.2878 156.747 14.0084C156.468 13.7116 156.328 13.345 156.328 12.9085C156.328 12.4895 156.468 12.1403 156.747 11.861C157.027 11.5642 157.385 11.4158 157.821 11.4158C158.258 11.4158 158.615 11.5642 158.895 11.861C159.174 12.1403 159.314 12.4895 159.314 12.9085C159.314 13.345 159.174 13.7116 158.895 14.0084C158.615 14.2878 158.258 14.4274 157.821 14.4274Z" fill="white"/>
<path d="M146.664 29.6166C145.529 29.6166 144.499 29.3373 143.574 28.7786C142.649 28.2025 141.915 27.4256 141.374 26.4479C140.85 25.4702 140.588 24.3703 140.588 23.1481C140.588 21.926 140.85 20.8261 141.374 19.8484C141.915 18.8707 142.64 18.0938 143.548 17.5177C144.473 16.9415 145.512 16.6534 146.664 16.6534C147.607 16.6534 148.445 16.8542 149.178 17.2558C149.929 17.6399 150.531 18.1811 150.985 18.8794C151.439 19.5603 151.692 20.3547 151.745 21.2626V25.0075C151.692 25.8979 151.439 26.6923 150.985 27.3906C150.549 28.089 149.955 28.6389 149.204 29.0405C148.471 29.4246 147.624 29.6166 146.664 29.6166ZM147.057 27.3906C148.227 27.3906 149.169 26.9978 149.885 26.2122C150.601 25.4091 150.959 24.3877 150.959 23.1481C150.959 22.2926 150.793 21.5506 150.461 20.9221C150.147 20.2762 149.693 19.7786 149.1 19.4294C148.506 19.0628 147.816 18.8794 147.031 18.8794C146.245 18.8794 145.547 19.0628 144.936 19.4294C144.342 19.796 143.871 20.3023 143.521 20.9483C143.19 21.5768 143.024 22.3014 143.024 23.1219C143.024 23.96 143.19 24.702 143.521 25.3479C143.871 25.9765 144.351 26.474 144.962 26.8407C145.573 27.2073 146.271 27.3906 147.057 27.3906ZM150.802 29.3548V26.0027L151.247 22.9648L150.802 19.9532V16.9153H153.185V29.3548H150.802Z" fill="white"/>
<path d="M124.031 29.3547V27.1025H129.086C130.43 27.1025 131.609 26.8144 132.621 26.2383C133.634 25.6447 134.419 24.8329 134.978 23.8028C135.554 22.7727 135.842 21.5855 135.842 20.2412C135.842 18.9143 135.554 17.7358 134.978 16.7058C134.402 15.6757 133.608 14.8726 132.595 14.2965C131.582 13.7203 130.413 13.4322 129.086 13.4322H124.058V11.1801H129.138C130.465 11.1801 131.687 11.407 132.804 11.8609C133.939 12.3149 134.917 12.9521 135.738 13.7727C136.576 14.5933 137.222 15.5535 137.675 16.6534C138.147 17.7533 138.383 18.958 138.383 20.2674C138.383 21.5593 138.147 22.764 137.675 23.8814C137.222 24.9813 136.584 25.9415 135.764 26.7621C134.943 27.5826 133.965 28.2199 132.831 28.6738C131.713 29.1277 130.5 29.3547 129.19 29.3547H124.031ZM122.408 29.3547V11.1801H124.869V29.3547H122.408Z" fill="white"/>
<path d="M110.066 29.3546L104.907 21.1053H104.409L97.2862 10.8657H102.183L107.264 18.6175H107.762L114.885 29.3546H110.066ZM96.9458 29.3546L103.781 19.4555L106.95 21.2363L101.633 29.3546H96.9458ZM107.919 20.6339L104.75 18.8531L109.883 10.8657H114.571L107.919 20.6339Z" fill="white"/>
<path d="M92.5478 29.3546L87.3887 21.1053H86.8911L79.7679 10.8657H84.6651L89.7457 18.6175H90.2432L97.3665 29.3546H92.5478ZM79.4275 29.3546L86.2626 19.4555L89.4314 21.2363L84.1152 29.3546H79.4275ZM90.4004 20.6339L87.2316 18.8531L92.3645 10.8657H97.0522L90.4004 20.6339Z" fill="white"/>
<path d="M64.7036 29.3548V10.8658H68.8152V29.3548H64.7036ZM67.8462 29.3548V25.7932H77.9811V29.3548H67.8462ZM67.8462 21.6292V18.1986H77.0645V21.6292H67.8462ZM67.8462 14.4013V10.8658H77.8501V14.4013H67.8462Z" fill="white"/>
<path d="M45.5737 29.3546V10.8657H49.6853V29.3546H45.5737ZM57.018 29.3546V10.8657H61.1557V29.3546H57.018ZM48.0354 21.6291V18.0675H58.3798V21.6291H48.0354Z" fill="white"/>
</svg>
