<svg width="40" height="40" viewBox="0 0 40 40" fill="none" xmlns="http://www.w3.org/2000/svg">
<rect width="40" height="40" fill="#08683E"/>
<path d="M9.47803 30.7334V30.4082L10.1285 30.148C10.5622 29.9962 10.8441 29.7902 10.9742 29.53C11.126 29.2698 11.2019 28.9337 11.2019 28.5217V11.5106C11.2019 11.077 11.126 10.73 10.9742 10.4698C10.8441 10.2096 10.5622 10.0036 10.1285 9.85182L9.47803 9.59162V9.26636H17.7396V9.59162L17.1867 9.8193C16.7747 9.97108 16.4928 10.1771 16.341 10.4373C16.1892 10.6758 16.1133 11.0119 16.1133 11.4456V19.3494H23.887V11.4456C23.887 11.0119 23.8111 10.6758 23.6593 10.4373C23.5292 10.1771 23.2473 9.97108 22.8136 9.8193L22.2282 9.59162V9.26636H30.5223V9.59162L29.8718 9.85182C29.4598 10.0036 29.1779 10.2096 29.0261 10.4698C28.8743 10.73 28.7984 11.077 28.7984 11.5106V28.5217C28.7984 28.9337 28.8743 29.2698 29.0261 29.53C29.1779 29.7902 29.4598 29.9962 29.8718 30.148L30.5223 30.4082V30.7334H22.2282V30.4082L22.8136 30.213C23.2473 30.0396 23.5292 29.8336 23.6593 29.595C23.8111 29.3348 23.887 28.9879 23.887 28.5542V19.9999H16.1133V28.5542C16.1133 29.3565 16.4711 29.9094 17.1867 30.213L17.7396 30.4082V30.7334H9.47803Z" fill="white"/>
</svg>
