<svg width="15" height="14" viewBox="0 0 15 14" fill="none" xmlns="http://www.w3.org/2000/svg">
<path d="M7.42059 4.8068C6.31565 4.8068 5.42057 5.7022 5.42057 6.8068C5.42057 7.91167 6.31599 8.8068 7.42059 8.8068C8.52545 8.8068 9.42059 7.9114 9.42059 6.8068C9.42059 5.70194 8.52519 4.8068 7.42059 4.8068ZM7.42059 3.47347C9.26085 3.47347 10.7539 4.96487 10.7539 6.8068C10.7539 8.64714 9.26252 10.1401 7.42059 10.1401C5.58026 10.1401 4.08724 8.64874 4.08724 6.8068C4.08724 4.96649 5.57864 3.47347 7.42059 3.47347ZM11.7539 3.30624C11.7539 3.76631 11.3801 4.13958 10.9206 4.13958C10.4605 4.13958 10.0873 3.76574 10.0873 3.30624C10.0873 2.84674 10.4611 2.47347 10.9206 2.47347C11.3795 2.47289 11.7539 2.84674 11.7539 3.30624ZM7.42059 1.47347C5.77092 1.47347 5.50204 1.47784 4.73477 1.512C4.21202 1.53654 3.86161 1.60685 3.53603 1.73325C3.24669 1.84546 3.03798 1.97946 2.8156 2.20184C2.59237 2.42507 2.45861 2.63322 2.34685 2.92269C2.22016 3.24902 2.14987 3.59888 2.12577 4.1209C2.09127 4.85694 2.08724 5.11417 2.08724 6.8068C2.08724 8.45647 2.09161 8.72534 2.12577 9.49254C2.15032 10.0151 2.22072 10.366 2.34681 10.6908C2.45932 10.9805 2.59359 11.1897 2.81489 11.4111C3.03901 11.6349 3.24778 11.7691 3.5345 11.8797C3.86405 12.0071 4.21424 12.0775 4.73467 12.1016C5.47071 12.1361 5.72794 12.1401 7.42059 12.1401C9.07025 12.1401 9.33912 12.1357 10.1063 12.1016C10.6277 12.0771 10.9789 12.0065 11.3046 11.8805C11.5935 11.7683 11.8034 11.6336 12.0249 11.4125C12.249 11.188 12.3829 10.9797 12.4937 10.6923C12.6208 10.364 12.6913 10.0133 12.7154 9.49274C12.7499 8.75667 12.7539 8.4994 12.7539 6.8068C12.7539 5.15715 12.7495 4.88828 12.7154 4.12105C12.6909 3.59951 12.6203 3.2478 12.4941 2.92226C12.3822 2.63372 12.2477 2.42437 12.0255 2.20184C11.8019 1.97824 11.5943 1.84476 11.3047 1.73308C10.9786 1.6065 10.6282 1.53611 10.1065 1.51201C9.37045 1.4775 9.11319 1.47347 7.42059 1.47347ZM7.42059 0.140137C9.23165 0.140137 9.45779 0.146803 10.1689 0.180137C10.8783 0.212917 11.3623 0.325137 11.7873 0.490137C12.2267 0.659583 12.5978 0.88847 12.9683 1.25902C13.3383 1.62958 13.5673 2.0018 13.7373 2.44014C13.9017 2.86458 14.0139 3.34902 14.0473 4.05847C14.0789 4.76958 14.0873 4.99569 14.0873 6.8068C14.0873 8.61794 14.0806 8.844 14.0473 9.55514C14.0145 10.2646 13.9017 10.7485 13.7373 11.1735C13.5678 11.6129 13.3383 11.984 12.9683 12.3546C12.5978 12.7246 12.225 12.9535 11.7873 13.1235C11.3623 13.2879 10.8783 13.4001 10.1689 13.4335C9.45779 13.4651 9.23165 13.4735 7.42059 13.4735C5.60946 13.4735 5.38335 13.4668 4.67224 13.4335C3.96279 13.4007 3.47946 13.2879 3.05391 13.1235C2.61501 12.954 2.24335 12.7246 1.87279 12.3546C1.50224 11.984 1.27391 11.6113 1.10391 11.1735C0.938906 10.7485 0.82724 10.2646 0.793906 9.55514C0.76224 8.844 0.753906 8.61794 0.753906 6.8068C0.753906 4.99569 0.760573 4.76958 0.793906 4.05847C0.82668 3.34847 0.938906 2.86514 1.10391 2.44014C1.27335 2.00125 1.50224 1.62958 1.87279 1.25902C2.24335 0.88847 2.61557 0.660137 3.05391 0.490137C3.47891 0.325137 3.96224 0.21347 4.67224 0.180137C5.38335 0.14847 5.60946 0.140137 7.42059 0.140137Z" fill="#908F90"/>
</svg>
