<svg width="24" height="25" viewBox="0 0 24 25" fill="none" xmlns="http://www.w3.org/2000/svg">
<path d="M12.001 9.3999C10.3436 9.3999 9.00098 10.743 9.00098 12.3999C9.00098 14.0572 10.3441 15.3999 12.001 15.3999C13.6583 15.3999 15.001 14.0568 15.001 12.3999C15.001 10.7426 13.6579 9.3999 12.001 9.3999ZM12.001 7.3999C14.7614 7.3999 17.001 9.637 17.001 12.3999C17.001 15.1604 14.7639 17.3999 12.001 17.3999C9.24051 17.3999 7.00098 15.1628 7.00098 12.3999C7.00098 9.63943 9.23808 7.3999 12.001 7.3999ZM18.501 7.14905C18.501 7.83916 17.9402 8.39907 17.251 8.39907C16.5609 8.39907 16.001 7.8383 16.001 7.14905C16.001 6.4598 16.5617 5.8999 17.251 5.8999C17.9393 5.89903 18.501 6.4598 18.501 7.14905ZM12.001 4.3999C9.5265 4.3999 9.12318 4.40645 7.97227 4.4577C7.18815 4.49451 6.66253 4.59997 6.17416 4.78957C5.74016 4.95789 5.42709 5.15888 5.09352 5.49245C4.75867 5.8273 4.55804 6.13953 4.3904 6.57373C4.20036 7.06322 4.09493 7.58801 4.05878 8.37105C4.00703 9.4751 4.00098 9.86095 4.00098 12.3999C4.00098 14.8744 4.00753 15.2777 4.05877 16.4285C4.0956 17.2123 4.2012 17.7387 4.39034 18.2259C4.5591 18.6605 4.7605 18.9743 5.09246 19.3063C5.42863 19.642 5.74179 19.8433 6.17187 20.0093C6.66619 20.2004 7.19148 20.306 7.97212 20.3421C9.07618 20.3938 9.46203 20.3999 12.001 20.3999C14.4755 20.3999 14.8788 20.3933 16.0296 20.3421C16.8117 20.3054 17.3385 20.1995 17.827 20.0105C18.2604 19.8422 18.5752 19.6401 18.9074 19.3084C19.2436 18.9717 19.4445 18.6593 19.6107 18.2282C19.8013 17.7357 19.9071 17.2097 19.9432 16.4288C19.9949 15.3247 20.001 14.9388 20.001 12.3999C20.001 9.92542 19.9944 9.52211 19.9432 8.37127C19.9064 7.58896 19.8005 7.06139 19.6113 6.57308C19.4434 6.14028 19.2417 5.82625 18.9084 5.49245C18.573 5.15705 18.2616 4.95683 17.8271 4.78932C17.338 4.59944 16.8124 4.49386 16.0298 4.45771C14.9258 4.40595 14.5399 4.3999 12.001 4.3999ZM12.001 2.3999C14.7176 2.3999 15.0568 2.4099 16.1235 2.4599C17.1876 2.50907 17.9135 2.6774 18.551 2.9249C19.2101 3.17907 19.7668 3.5224 20.3226 4.07823C20.8776 4.63407 21.221 5.1924 21.476 5.8499C21.7226 6.48657 21.891 7.21323 21.941 8.2774C21.9885 9.34407 22.001 9.68323 22.001 12.3999C22.001 15.1166 21.991 15.4557 21.941 16.5224C21.8918 17.5866 21.7226 18.3124 21.476 18.9499C21.2218 19.6091 20.8776 20.1657 20.3226 20.7216C19.7668 21.2766 19.2076 21.6199 18.551 21.8749C17.9135 22.1216 17.1876 22.2899 16.1235 22.3399C15.0568 22.3874 14.7176 22.3999 12.001 22.3999C9.28431 22.3999 8.94514 22.3899 7.87848 22.3399C6.81431 22.2907 6.08931 22.1216 5.45098 21.8749C4.79264 21.6207 4.23514 21.2766 3.67931 20.7216C3.12348 20.1657 2.78098 19.6066 2.52598 18.9499C2.27848 18.3124 2.11098 17.5866 2.06098 16.5224C2.01348 15.4557 2.00098 15.1166 2.00098 12.3999C2.00098 9.68323 2.01098 9.34407 2.06098 8.2774C2.11014 7.2124 2.27848 6.4874 2.52598 5.8499C2.78014 5.19157 3.12348 4.63407 3.67931 4.07823C4.23514 3.5224 4.79348 3.1799 5.45098 2.9249C6.08848 2.6774 6.81348 2.5099 7.87848 2.4599C8.94514 2.4124 9.28431 2.3999 12.001 2.3999Z" fill="white"/>
</svg>
