<svg width="149" height="34" viewBox="0 0 149 34" fill="none" xmlns="http://www.w3.org/2000/svg">
<rect width="33.1214" height="33.1214" transform="translate(0 0.339172)" fill="white"/>
<path d="M7.84814 25.7875V25.5181L8.3868 25.3027C8.7459 25.177 8.97931 25.0064 9.08704 24.791C9.21273 24.5755 9.27557 24.2972 9.27557 23.956V9.87031C9.27557 9.51121 9.21273 9.22393 9.08704 9.00847C8.97931 8.79301 8.7459 8.62243 8.3868 8.49675L7.84814 8.28129V8.01196H14.689V8.28129L14.2312 8.46982C13.89 8.5955 13.6566 8.76607 13.5309 8.98154C13.4052 9.17904 13.3424 9.45734 13.3424 9.81644V16.3611H19.7793V9.81644C19.7793 9.45734 19.7164 9.17904 19.5907 8.98154C19.483 8.76607 19.2496 8.5955 18.8905 8.46982L18.4057 8.28129V8.01196H25.2735V8.28129L24.7349 8.49675C24.3937 8.62243 24.1603 8.79301 24.0346 9.00847C23.9089 9.22393 23.8461 9.51121 23.8461 9.87031V23.956C23.8461 24.2972 23.9089 24.5755 24.0346 24.791C24.1603 25.0064 24.3937 25.177 24.7349 25.3027L25.2735 25.5181V25.7875H18.4057V25.5181L18.8905 25.3565C19.2496 25.2129 19.483 25.0423 19.5907 24.8448C19.7164 24.6294 19.7793 24.3421 19.7793 23.983V16.8997H13.3424V23.983C13.3424 24.6473 13.6386 25.1052 14.2312 25.3565L14.689 25.5181V25.7875H7.84814Z" fill="#1A1A1A"/>
<path d="M142.376 24.7323L137.909 14.3453H140.078L143.395 22.4771H142.702L146.193 14.3453H148.361L143.547 24.7323H142.376ZM139.427 28.9608L142.463 22.7373L143.547 24.7323L141.596 28.9608H139.427Z" fill="white"/>
<path d="M134.187 24.6457V9.16278H136.138V24.6457H134.187Z" fill="white"/>
<path d="M129.359 24.6456V14.3453H131.31V24.6456H129.359ZM130.335 12.2853C129.973 12.2853 129.677 12.1696 129.446 11.9383C129.214 11.6925 129.099 11.389 129.099 11.0275C129.099 10.6806 129.214 10.3915 129.446 10.1601C129.677 9.91438 129.973 9.7915 130.335 9.7915C130.696 9.7915 130.992 9.91438 131.224 10.1601C131.455 10.3915 131.571 10.6806 131.571 11.0275C131.571 11.389 131.455 11.6925 131.224 11.9383C130.992 12.1696 130.696 12.2853 130.335 12.2853Z" fill="white"/>
<path d="M121.096 24.8626C120.156 24.8626 119.303 24.6313 118.537 24.1687C117.771 23.6916 117.164 23.0483 116.715 22.2387C116.282 21.4292 116.065 20.5184 116.065 19.5064C116.065 18.4945 116.282 17.5837 116.715 16.7741C117.164 15.9646 117.764 15.3213 118.515 14.8442C119.282 14.3671 120.142 14.1286 121.096 14.1286C121.876 14.1286 122.57 14.2949 123.178 14.6274C123.799 14.9454 124.298 15.3935 124.674 15.9718C125.05 16.5356 125.259 17.1934 125.303 17.9451V21.0461C125.259 21.7833 125.05 22.4411 124.674 23.0194C124.312 23.5976 123.821 24.053 123.199 24.3855C122.592 24.7036 121.891 24.8626 121.096 24.8626ZM121.421 23.0194C122.39 23.0194 123.17 22.6941 123.763 22.0436C124.356 21.3786 124.652 20.5329 124.652 19.5064C124.652 18.7981 124.515 18.1837 124.24 17.6632C123.98 17.1283 123.604 16.7163 123.113 16.4272C122.621 16.1236 122.05 15.9718 121.399 15.9718C120.749 15.9718 120.171 16.1236 119.665 16.4272C119.173 16.7308 118.783 17.15 118.494 17.6849C118.219 18.2053 118.082 18.8053 118.082 19.4848C118.082 20.1787 118.219 20.7931 118.494 21.328C118.783 21.8484 119.18 22.2604 119.686 22.564C120.192 22.8676 120.771 23.0194 121.421 23.0194ZM124.522 24.6457V21.8701L124.891 19.3546L124.522 16.8609V14.3454H126.495V24.6457H124.522Z" fill="white"/>
<path d="M102.355 24.6457V22.7808H106.54C107.654 22.7808 108.629 22.5423 109.468 22.0652C110.306 21.5737 110.957 20.9015 111.419 20.0485C111.896 19.1956 112.135 18.2125 112.135 17.0994C112.135 16.0007 111.896 15.0249 111.419 14.1719C110.942 13.319 110.285 12.654 109.446 12.1769C108.608 11.6999 107.639 11.4613 106.54 11.4613H102.377V9.59644H106.584C107.682 9.59644 108.694 9.78437 109.62 10.1602C110.559 10.5361 111.369 11.0638 112.048 11.7432C112.742 12.4227 113.277 13.2178 113.653 14.1286C114.043 15.0393 114.238 16.0368 114.238 17.1211C114.238 18.1909 114.043 19.1884 113.653 20.1136C113.277 21.0243 112.749 21.8194 112.07 22.4989C111.391 23.1784 110.581 23.706 109.641 24.0819C108.716 24.4578 107.711 24.6457 106.627 24.6457H102.355ZM101.011 24.6457V9.59644H103.049V24.6457H101.011Z" fill="white"/>
<path d="M90.7913 24.6457L86.5194 17.815H86.1074L80.2091 9.33624H84.2642L88.4711 15.755H88.8831L94.7813 24.6457H90.7913ZM79.9272 24.6457L85.587 16.4489L88.2108 17.9234L83.8088 24.6457H79.9272ZM89.0132 17.4247L86.3893 15.9501L90.6395 9.33624H94.5211L89.0132 17.4247Z" fill="white"/>
<path d="M76.2855 24.6457L72.0136 17.815H71.6015L65.7033 9.33624H69.7583L73.9652 15.755H74.3772L80.2755 24.6457H76.2855ZM65.4214 24.6457L71.0811 16.4489L73.705 17.9234L69.303 24.6457H65.4214ZM74.5073 17.4247L71.8835 15.9501L76.1337 9.33624H80.0152L74.5073 17.4247Z" fill="white"/>
<path d="M53.23 24.6457V9.33624H56.6345V24.6457H53.23ZM55.8322 24.6457V21.6966H64.2242V24.6457H55.8322ZM55.8322 18.2487V15.408H63.4652V18.2487H55.8322ZM55.8322 12.2637V9.33624H64.1157V12.2637H55.8322Z" fill="white"/>
<path d="M37.3896 24.6457V9.33624H40.7942V24.6457H37.3896ZM46.8659 24.6457V9.33624H50.2921V24.6457H46.8659ZM39.428 18.2487V15.2996H47.9935V18.2487H39.428Z" fill="white"/>
</svg>
