<svg width="13" height="13" viewBox="0 0 13 13" fill="none" xmlns="http://www.w3.org/2000/svg">
<path d="M10.6434 11.0329H8.8664V8.24835C8.8664 7.58435 8.85294 6.72988 7.9404 6.72988C7.01394 6.72988 6.8724 7.45242 6.8724 8.19935V11.0329H5.0954V5.30688H6.8024V6.08735H6.8254C7.06393 5.63735 7.64393 5.16238 8.5104 5.16238C10.3109 5.16238 10.6439 6.34742 10.6439 7.88988L10.6434 11.0329ZM3.08842 4.52338C2.51642 4.52338 2.05692 4.06038 2.05692 3.49088C2.05692 2.92188 2.51692 2.45938 3.08842 2.45938C3.65842 2.45938 4.12042 2.92188 4.12042 3.49088C4.12042 4.06038 3.65792 4.52338 3.08842 4.52338ZM3.97942 11.0329H2.19742V5.30688H3.97942V11.0329ZM11.5324 0.806885H1.30542C0.815922 0.806885 0.419922 1.19388 0.419922 1.67138V11.9424C0.419922 12.4204 0.815922 12.8069 1.30542 12.8069H11.5309C12.0199 12.8069 12.4199 12.4204 12.4199 11.9424V1.67138C12.4199 1.19388 12.0199 0.806885 11.5309 0.806885H11.5324Z" fill="#908F90"/>
</svg>
