<svg width="24" height="25" viewBox="0 0 24 25" fill="none" xmlns="http://www.w3.org/2000/svg">
<path d="M18.3362 18.7389H15.6707V14.5621C15.6707 13.5661 15.6505 12.2844 14.2817 12.2844C12.892 12.2844 12.6797 13.3682 12.6797 14.4886V18.7389H10.0142V10.1499H12.5747V11.3206H12.6092C12.967 10.6456 13.837 9.93315 15.1367 9.93315C17.8375 9.93315 18.337 11.7107 18.337 14.0244L18.3362 18.7389ZM7.00373 8.97465C6.14573 8.97465 5.45648 8.28015 5.45648 7.4259C5.45648 6.5724 6.14648 5.87865 7.00373 5.87865C7.85873 5.87865 8.55173 6.5724 8.55173 7.4259C8.55173 8.28015 7.85798 8.97465 7.00373 8.97465ZM8.34023 18.7389H5.66723V10.1499H8.34023V18.7389ZM19.6697 3.3999H4.32923C3.59498 3.3999 3.00098 3.9804 3.00098 4.69665V20.1032C3.00098 20.8201 3.59498 21.3999 4.32923 21.3999H19.6675C20.401 21.3999 21.001 20.8201 21.001 20.1032V4.69665C21.001 3.9804 20.401 3.3999 19.6675 3.3999H19.6697Z" fill="white"/>
</svg>
