<svg width="180" height="40" viewBox="0 0 180 40" fill="none" xmlns="http://www.w3.org/2000/svg">
<rect width="40" height="40" transform="translate(0.419434)" fill="#08683E"/>
<path d="M9.89746 30.7334V30.4082L10.548 30.148C10.9817 29.9962 11.2635 29.7902 11.3937 29.53C11.5454 29.2698 11.6213 28.9337 11.6213 28.5217V11.5106C11.6213 11.077 11.5454 10.73 11.3937 10.4698C11.2635 10.2096 10.9817 10.0036 10.548 9.85182L9.89746 9.59162V9.26636H18.159V9.59162L17.6061 9.8193C17.1941 9.97108 16.9122 10.1771 16.7604 10.4373C16.6086 10.6758 16.5327 11.0119 16.5327 11.4456V19.3494H24.3064V11.4456C24.3064 11.0119 24.2305 10.6758 24.0787 10.4373C23.9486 10.1771 23.6668 9.97108 23.2331 9.8193L22.6476 9.59162V9.26636H30.9417V9.59162L30.2912 9.85182C29.8792 10.0036 29.5973 10.2096 29.4455 10.4698C29.2937 10.73 29.2178 11.077 29.2178 11.5106V28.5217C29.2178 28.9337 29.2937 29.2698 29.4455 29.53C29.5973 29.7902 29.8792 29.9962 30.2912 30.148L30.9417 30.4082V30.7334H22.6476V30.4082L23.2331 30.213C23.6668 30.0396 23.9486 29.8336 24.0787 29.595C24.2305 29.3348 24.3064 28.9879 24.3064 28.5542V19.9999H16.5327V28.5542C16.5327 29.3565 16.8905 29.9094 17.6061 30.213L18.159 30.4082V30.7334H9.89746Z" fill="white"/>
<path d="M172.364 29.4592L166.969 16.915H169.588L173.595 26.7356H172.757L176.973 16.915H179.592L173.778 29.4592H172.364ZM168.802 34.5659L172.469 27.0499L173.778 29.4592L171.421 34.5659H168.802Z" fill="#191919"/>
<path d="M162.473 29.3547V10.6562H164.83V29.3547H162.473Z" fill="#191919"/>
<path d="M156.643 29.3545V16.9151H159V29.3545H156.643ZM157.821 14.4272C157.385 14.4272 157.027 14.2875 156.748 14.0082C156.468 13.7114 156.329 13.3447 156.329 12.9083C156.329 12.4892 156.468 12.1401 156.748 11.8607C157.027 11.5639 157.385 11.4155 157.821 11.4155C158.258 11.4155 158.616 11.5639 158.895 11.8607C159.174 12.1401 159.314 12.4892 159.314 12.9083C159.314 13.3447 159.174 13.7114 158.895 14.0082C158.616 14.2875 158.258 14.4272 157.821 14.4272Z" fill="#191919"/>
<path d="M146.664 29.6165C145.529 29.6165 144.499 29.3372 143.574 28.7785C142.649 28.2023 141.915 27.4254 141.374 26.4477C140.85 25.47 140.588 24.3701 140.588 23.148C140.588 21.9259 140.85 20.826 141.374 19.8483C141.915 18.8706 142.64 18.0937 143.548 17.5175C144.473 16.9414 145.512 16.6533 146.664 16.6533C147.607 16.6533 148.445 16.8541 149.178 17.2557C149.929 17.6397 150.531 18.181 150.985 18.8793C151.439 19.5602 151.692 20.3546 151.745 21.2625V25.0074C151.692 25.8978 151.439 26.6922 150.985 27.3905C150.549 28.0889 149.955 28.6388 149.204 29.0404C148.471 29.4245 147.624 29.6165 146.664 29.6165ZM147.057 27.3905C148.227 27.3905 149.169 26.9977 149.885 26.212C150.601 25.4089 150.959 24.3876 150.959 23.148C150.959 22.2925 150.793 21.5505 150.461 20.922C150.147 20.276 149.693 19.7785 149.1 19.4293C148.506 19.0626 147.816 18.8793 147.031 18.8793C146.245 18.8793 145.547 19.0626 144.936 19.4293C144.342 19.7959 143.871 20.3022 143.521 20.9482C143.19 21.5767 143.024 22.3013 143.024 23.1218C143.024 23.9598 143.19 24.7018 143.521 25.3478C143.871 25.9763 144.351 26.4739 144.962 26.8406C145.573 27.2072 146.271 27.3905 147.057 27.3905ZM150.802 29.3546V26.0025L151.247 22.9647L150.802 19.953V16.9152H153.185V29.3546H150.802Z" fill="#191919"/>
<path d="M124.031 29.3546V27.1024H129.086C130.43 27.1024 131.609 26.8143 132.621 26.2382C133.634 25.6446 134.419 24.8327 134.978 23.8027C135.554 22.7726 135.842 21.5854 135.842 20.2411C135.842 18.9142 135.554 17.7357 134.978 16.7057C134.402 15.6756 133.608 14.8725 132.595 14.2963C131.582 13.7202 130.413 13.4321 129.086 13.4321H124.058V11.1799H129.138C130.465 11.1799 131.687 11.4069 132.804 11.8608C133.939 12.3148 134.917 12.952 135.738 13.7726C136.576 14.5931 137.222 15.5534 137.675 16.6533C138.147 17.7532 138.383 18.9578 138.383 20.2673C138.383 21.5592 138.147 22.7639 137.675 23.8812C137.222 24.9811 136.584 25.9414 135.764 26.762C134.943 27.5825 133.965 28.2198 132.831 28.6737C131.713 29.1276 130.5 29.3546 129.19 29.3546H124.031ZM122.408 29.3546V11.1799H124.869V29.3546H122.408Z" fill="#191919"/>
<path d="M110.066 29.3546L104.907 21.1053H104.409L97.2862 10.8657H102.183L107.264 18.6175H107.762L114.885 29.3546H110.066ZM96.9458 29.3546L103.781 19.4555L106.95 21.2363L101.633 29.3546H96.9458ZM107.919 20.6339L104.75 18.8531L109.883 10.8657H114.571L107.919 20.6339Z" fill="#004024"/>
<path d="M92.5476 29.3546L87.3885 21.1053H86.8909L79.7677 10.8657H84.6649L89.7454 18.6175H90.243L97.3662 29.3546H92.5476ZM79.4272 29.3546L86.2624 19.4555L89.4312 21.2363L84.1149 29.3546H79.4272ZM90.4001 20.6339L87.2313 18.8531L92.3643 10.8657H97.0519L90.4001 20.6339Z" fill="#004024"/>
<path d="M64.7036 29.3546V10.8657H68.8152V29.3546H64.7036ZM67.8462 29.3546V25.793H77.9811V29.3546H67.8462ZM67.8462 21.6291V18.1984H77.0645V21.6291H67.8462ZM67.8462 14.4011V10.8657H77.8501V14.4011H67.8462Z" fill="#004024"/>
<path d="M45.5737 29.3546V10.8657H49.6853V29.3546H45.5737ZM57.018 29.3546V10.8657H61.1557V29.3546H57.018ZM48.0354 21.6291V18.0675H58.3798V21.6291H48.0354Z" fill="#004024"/>
</svg>
