<svg width="21" height="16" viewBox="0 0 21 16" fill="none" xmlns="http://www.w3.org/2000/svg">
<path d="M2.19336 16C1.64336 16 1.17269 15.8043 0.781359 15.413C0.390026 15.0217 0.194026 14.5507 0.193359 14V2C0.193359 1.45 0.389359 0.979333 0.781359 0.588C1.17336 0.196666 1.64403 0.000666667 2.19336 0H18.1934C18.7434 0 19.2144 0.196 19.6064 0.588C19.9984 0.98 20.194 1.45067 20.1934 2V14C20.1934 14.55 19.9977 15.021 19.6064 15.413C19.215 15.805 18.744 16.0007 18.1934 16H2.19336ZM18.1934 4L10.7184 8.675C10.635 8.725 10.5477 8.76267 10.4564 8.788C10.365 8.81333 10.2774 8.82567 10.1934 8.825C10.1094 8.82433 10.022 8.812 9.93136 8.788C9.84069 8.764 9.75303 8.72633 9.66836 8.675L2.19336 4V14H18.1934V4ZM10.1934 7L18.1934 2H2.19336L10.1934 7ZM2.19336 4.25V2.775V2.8V2.788V4.25Z" fill="#AEADAE"/>
</svg>
