<svg width="21" height="20" viewBox="0 0 21 20" fill="none" xmlns="http://www.w3.org/2000/svg">
<path d="M12.5804 7.99998L9.58043 11M18.8684 1.03098C18.9633 0.99823 19.0655 0.992841 19.1633 1.01542C19.2611 1.03801 19.3506 1.08765 19.4215 1.15869C19.4925 1.22972 19.542 1.31927 19.5644 1.41711C19.5869 1.51495 19.5813 1.61713 19.5484 1.71198L13.6244 18.642C13.589 18.7432 13.5239 18.8314 13.4377 18.8952C13.3515 18.959 13.2482 18.9954 13.141 18.9997C13.0339 19.004 12.9279 18.976 12.8369 18.9194C12.7458 18.8627 12.6739 18.78 12.6304 18.682L9.41143 11.44C9.35727 11.3195 9.26086 11.2231 9.14043 11.169L1.89843 7.94898C1.80072 7.90535 1.71834 7.83343 1.66193 7.74251C1.60552 7.65159 1.57767 7.54584 1.58198 7.43892C1.58628 7.33201 1.62255 7.22884 1.68609 7.14275C1.74963 7.05666 1.83753 6.9916 1.93843 6.95598L18.8684 1.03098Z" stroke="#12975D" stroke-width="1.8" stroke-linecap="round" stroke-linejoin="round"/>
</svg>
