<svg width="24" height="25" viewBox="0 0 24 25" fill="none" xmlns="http://www.w3.org/2000/svg">
<path d="M16.7051 11.508C16.543 8.52127 14.911 6.81138 12.1708 6.79388C10.5193 6.7837 9.1377 7.48379 8.29233 8.76654L9.79941 9.80036C10.4334 8.83842 11.4342 8.64005 12.1593 8.64675C13.0616 8.6525 13.7425 8.91484 14.1832 9.42643C14.5038 9.79889 14.7183 10.3136 14.8245 10.9631C14.0246 10.8272 13.1594 10.7854 12.2345 10.8384C9.62919 10.9885 7.95425 12.508 8.06674 14.6193C8.12383 15.6903 8.65739 16.6117 9.56906 17.2136C10.3399 17.7224 11.3326 17.9712 12.3644 17.9149C13.727 17.8402 14.7959 17.3204 15.5416 16.3698C16.1079 15.6479 16.4661 14.7124 16.6243 13.5337C17.2737 13.9256 17.7549 14.4413 18.0207 15.0612C18.4726 16.115 18.499 17.8468 17.086 19.2586C15.848 20.4954 14.3598 21.0305 12.1108 21.047C9.616 21.0285 7.72924 20.2284 6.50253 18.6689C5.35381 17.2087 4.76013 15.0995 4.73798 12.3999C4.76013 9.70028 5.35381 7.59107 6.50253 6.13082C7.72924 4.57137 9.61596 3.77131 12.1107 3.75277C14.6236 3.77145 16.5433 4.57537 17.8169 6.14234C18.4415 6.91076 18.9123 7.87711 19.2227 9.00384L20.9888 8.53264C20.6125 7.14577 20.0205 5.95068 19.2148 4.95956C17.582 2.95063 15.1816 1.92124 12.1046 1.8999C9.03384 1.92117 6.6725 2.95447 5.08614 4.97107C3.67451 6.7656 2.94634 9.27732 2.92188 12.4073C2.94634 15.5372 3.67451 18.0342 5.08614 19.8288C6.6725 21.8453 9.04616 22.8787 12.1169 22.8999C14.847 22.881 16.7713 22.1662 18.3566 20.5824C20.4307 18.5102 20.3682 15.9129 19.6846 14.3184C19.1595 13.0942 18.1141 12.1128 16.7051 11.508ZM12.2669 16.0647C11.125 16.129 9.93868 15.6165 9.88019 14.5187C9.83683 13.7047 10.4595 12.7965 12.3369 12.6883C13.2594 12.6351 14.1138 12.6975 14.8701 12.8629C14.6538 15.5647 13.3848 16.0034 12.2669 16.0647Z" fill="white"/>
</svg>
