<svg width="13" height="15" viewBox="0 0 13 15" fill="none" xmlns="http://www.w3.org/2000/svg">
<path d="M9.556 7.21229C9.44793 5.22113 8.35993 4.0812 6.53313 4.06954C5.43213 4.06275 4.51107 4.52948 3.94749 5.38464L4.95221 6.07386C5.37487 5.43257 6.04207 5.30032 6.52547 5.30478C7.127 5.30862 7.58093 5.48351 7.87473 5.82457C8.08847 6.07288 8.23147 6.416 8.30227 6.84902C7.769 6.75842 7.1922 6.73055 6.5756 6.76589C4.83873 6.86595 3.72211 7.87895 3.7971 9.28649C3.83516 10.0005 4.19086 10.6148 4.79864 11.016C5.31253 11.3552 5.97433 11.5211 6.6622 11.4836C7.5706 11.4338 8.2832 11.0872 8.78033 10.4535C9.15787 9.97222 9.39667 9.34855 9.50213 8.56275C9.93507 8.82402 10.2559 9.16782 10.4331 9.58109C10.7343 10.2836 10.7519 11.4382 9.80993 12.3794C8.9846 13.2039 7.99247 13.5606 6.49313 13.5716C4.82994 13.5593 3.57209 13.0259 2.75429 11.9862C1.98847 11.0128 1.59269 9.60662 1.57793 7.80688C1.59269 6.00714 1.98847 4.601 2.75429 3.6275C3.57209 2.58786 4.82991 2.05449 6.49307 2.04213C8.16833 2.05458 9.44813 2.59053 10.2972 3.63518C10.7136 4.14746 11.0275 4.79169 11.2344 5.54284L12.4118 5.22871C12.1609 4.30413 11.7663 3.5074 11.2291 2.84666C10.1406 1.50737 8.54033 0.821111 6.489 0.806885C4.44183 0.821065 2.8676 1.50993 1.81003 2.85433C0.868941 4.05068 0.383494 5.72516 0.367188 7.81182C0.383494 9.89842 0.868941 11.5631 1.81003 12.7595C2.8676 14.1038 4.45004 14.7928 6.4972 14.8069C8.31727 14.7943 9.60013 14.3178 10.657 13.2619C12.0397 11.8804 11.9981 10.1489 11.5423 9.08589C11.1923 8.26975 10.4953 7.61548 9.556 7.21229ZM6.5972 10.2501C5.83593 10.293 5.04506 9.95129 5.00606 9.21942C4.97716 8.67675 5.39227 8.07128 6.64387 7.99915C7.25887 7.96368 7.82847 8.00529 8.33267 8.11555C8.18847 9.91675 7.34247 10.2092 6.5972 10.2501Z" fill="#908F90"/>
</svg>
