<svg width="13" height="14" viewBox="0 0 13 14" fill="none" xmlns="http://www.w3.org/2000/svg">
<path d="M9.08659 4.30372V9.14014C9.08659 11.5334 7.14652 13.4735 4.75326 13.4735C2.36002 13.4735 0.419922 11.5334 0.419922 9.14014C0.419922 6.74687 2.36002 4.8068 4.75326 4.8068C5.09746 4.8068 5.43226 4.84693 5.75326 4.92276V7.03134C5.45019 6.88734 5.11112 6.8068 4.75326 6.8068C3.46459 6.8068 2.41992 7.85147 2.41992 9.14014C2.41992 10.4288 3.46459 11.4735 4.75326 11.4735C6.04192 11.4735 7.08659 10.4288 7.08659 9.14014V0.140137H9.08659C9.08659 1.98108 10.579 3.47347 12.4199 3.47347V5.47347C11.1587 5.47347 9.99966 5.03566 9.08659 4.30372Z" fill="#908F90"/>
</svg>
