<svg width="24" height="25" viewBox="0 0 24 25" fill="none" xmlns="http://www.w3.org/2000/svg">
<path d="M16 8.64527V15.8999C16 19.4898 13.0899 22.3999 9.5 22.3999C5.91015 22.3999 3 19.4898 3 15.8999C3 12.31 5.91015 9.3999 9.5 9.3999C10.0163 9.3999 10.5185 9.46009 11 9.57383V12.7367C10.5454 12.5207 10.0368 12.3999 9.5 12.3999C7.567 12.3999 6 13.9669 6 15.8999C6 17.8329 7.567 19.3999 9.5 19.3999C11.433 19.3999 13 17.8329 13 15.8999V2.3999H16C16 5.16132 18.2386 7.3999 21 7.3999V10.3999C19.1081 10.3999 17.3696 9.74318 16 8.64527Z" fill="white"/>
</svg>
