<svg width="35" height="25" viewBox="0 0 35 25" fill="none" xmlns="http://www.w3.org/2000/svg">
<rect x="0.601562" y="0.468018" width="34.4" height="24" rx="4" fill="#00579F"/>
<path d="M15.3201 16.5508H13.375L14.5916 8.89722H16.5365L15.3201 16.5508Z" fill="white"/>
<path d="M22.3698 9.08439C21.9861 8.92953 21.3776 8.75854 20.6252 8.75854C18.7044 8.75854 17.3518 9.80068 17.3435 11.2906C17.3276 12.3899 18.3119 13.0005 19.0482 13.367C19.8007 13.7415 20.0565 13.986 20.0565 14.3199C20.0488 14.8326 19.4484 15.0689 18.8884 15.0689C18.1119 15.0689 17.6958 14.9471 17.0635 14.6618L16.8073 14.5395L16.5352 16.2576C16.9913 16.4691 17.8318 16.6567 18.7044 16.6649C20.7453 16.6649 22.074 15.6389 22.0897 14.0512C22.0975 13.1799 21.5777 12.5123 20.4571 11.9668C19.7768 11.6166 19.3602 11.3804 19.3602 11.0221C19.3681 10.6964 19.7125 10.3628 20.4805 10.3628C21.1128 10.3464 21.5774 10.5011 21.9293 10.6558L22.1053 10.7371L22.3698 9.08439Z" fill="white"/>
<path d="M24.9546 13.8394C25.1148 13.3997 25.7312 11.698 25.7312 11.698C25.7231 11.7143 25.891 11.2502 25.9871 10.9653L26.123 11.6247C26.123 11.6247 26.4914 13.4568 26.5713 13.8394C26.2674 13.8394 25.3388 13.8394 24.9546 13.8394ZM27.3556 8.89722H25.8511C25.3871 8.89722 25.0346 9.03552 24.8344 9.53224L21.9453 16.5507H23.9862C23.9862 16.5507 24.3222 15.6061 24.3944 15.4026C24.6183 15.4026 26.6037 15.4026 26.8917 15.4026C26.9475 15.6713 27.1238 16.5507 27.1238 16.5507H28.9247L27.3556 8.89722Z" fill="white"/>
<path d="M11.7475 8.89722L9.84263 14.1162L9.63448 13.0578C9.28231 11.8364 8.17784 10.5094 6.94531 9.84964L8.69009 16.5427H10.7469L13.8042 8.89722H11.7475Z" fill="white"/>
<path d="M8.07548 8.89722H4.94608L4.91406 9.05186C7.35519 9.68699 8.97191 11.2179 9.63614 13.0581L8.95584 9.54057C8.84384 9.05175 8.49966 8.91334 8.07548 8.89722Z" fill="#FAA61A"/>
</svg>
