<svg width="24" height="25" viewBox="0 0 24 25" fill="none" xmlns="http://www.w3.org/2000/svg">
<path d="M12.2439 4.3999C12.778 4.40284 14.1143 4.41576 15.5341 4.47263L16.0375 4.49458C17.467 4.56226 18.8953 4.67788 19.6037 4.8754C20.5486 5.14085 21.2913 5.9154 21.5423 6.89722C21.942 8.45631 21.992 11.4993 21.9982 12.2357L21.9991 12.3883V12.399C21.9991 12.399 21.9991 12.4027 21.9991 12.4098L21.9982 12.5624C21.992 13.2988 21.942 16.3418 21.5423 17.9009C21.2878 18.8863 20.5451 19.6609 19.6037 19.9227C18.8953 20.1202 17.467 20.2358 16.0375 20.3035L15.5341 20.3254C14.1143 20.3823 12.778 20.3952 12.2439 20.3982L12.0095 20.399H11.9991C11.9991 20.399 11.9956 20.399 11.9887 20.399L11.7545 20.3982C10.6241 20.392 5.89772 20.3409 4.39451 19.9227C3.4496 19.6572 2.70692 18.8827 2.45587 17.9009C2.0562 16.3418 2.00624 13.2988 2 12.5624V12.2357C2.00624 11.4993 2.0562 8.45631 2.45587 6.89722C2.7104 5.91176 3.45308 5.13722 4.39451 4.8754C5.89772 4.45713 10.6241 4.40612 11.7545 4.3999H12.2439ZM9.99911 8.89904V15.899L15.9991 12.399L9.99911 8.89904Z" fill="white"/>
</svg>
