<svg width="24" height="24" viewBox="0 0 24 24" fill="none" xmlns="http://www.w3.org/2000/svg">
<path d="M0.563575 6.99679L11.3514 0.526745C11.7208 0.305137 12.1825 0.305218 12.5519 0.526955L23.3305 6.99676C23.5062 7.10219 23.6136 7.29205 23.6136 7.49691V22.3334C23.6136 22.9777 23.0913 23.5 22.4469 23.5H1.44694C0.802613 23.5 0.280273 22.9777 0.280273 22.3334V7.49705C0.280273 7.2921 0.387817 7.10221 0.563575 6.99679ZM2.61361 8.48809V21.1667H21.2803V8.48754L11.9513 2.88781L2.61361 8.48809ZM12.0166 14.9814L18.1951 9.77458L19.6987 11.5589L12.0333 18.0187L4.20495 11.567L5.68893 9.76639L12.0166 14.9814Z" fill="#12975D"/>
</svg>
