<svg width="24" height="24" viewBox="0 0 24 24" fill="none" xmlns="http://www.w3.org/2000/svg">
<path d="M0.564063 7.06637L11.3518 0.596325C11.7213 0.374717 12.183 0.374799 12.5523 0.596535L23.3309 7.06634C23.5066 7.17177 23.6141 7.36163 23.6141 7.56649V22.403C23.6141 23.0473 23.0918 23.5696 22.4474 23.5696H1.44743C0.803102 23.5696 0.280762 23.0473 0.280762 22.403V7.56663C0.280762 7.36168 0.388305 7.17179 0.564063 7.06637ZM2.6141 8.55767V21.2363H21.2808V8.55712L11.9517 2.95739L2.6141 8.55767ZM12.0171 15.051L18.1956 9.84416L19.6992 11.6284L12.0338 18.0883L4.20544 11.6366L5.68942 9.83597L12.0171 15.051Z" fill="#38D792"/>
</svg>
