<svg width="146" height="148" viewBox="0 0 146 148" fill="none" xmlns="http://www.w3.org/2000/svg">
<path d="M0.96875 147.9V145.665L5.43929 143.876C8.41965 142.833 10.3569 141.418 11.251 139.629C12.2941 137.841 12.8157 135.531 12.8157 132.7V15.7954C12.8157 12.8151 12.2941 10.4308 11.251 8.64256C10.3569 6.85434 8.41965 5.43868 5.43929 4.39556L0.96875 2.60734V0.37207H57.7446V2.60734L53.9446 4.17203C51.1133 5.21515 49.176 6.63082 48.1329 8.41904C47.0898 10.0582 46.5682 12.368 46.5682 15.3484V69.6654H99.9911V15.3484C99.9911 12.368 99.4696 10.0582 98.4265 8.41904C97.5323 6.63082 95.5951 5.21515 92.6148 4.17203L88.5913 2.60734V0.37207H145.591V2.60734L141.12 4.39556C138.289 5.43868 136.352 6.85434 135.308 8.64256C134.265 10.4308 133.744 12.8151 133.744 15.7954V132.7C133.744 135.531 134.265 137.841 135.308 139.629C136.352 141.418 138.289 142.833 141.12 143.876L145.591 145.665V147.9H88.5913V145.665L92.6148 144.323C95.5951 143.131 97.5323 141.716 98.4265 140.076C99.4696 138.288 99.9911 135.904 99.9911 132.923V74.1359H46.5682V132.923C46.5682 138.437 49.027 142.237 53.9446 144.323L57.7446 145.665V147.9H0.96875Z" fill="white" fill-opacity="0.06"/>
</svg>
